<svg width="137" height="20" viewBox="0 0 137 20" fill="none" xmlns="http://www.w3.org/2000/svg">
<path d="M0.546875 15.7329V14.0239L2.06055 13.731V3.52588L0.546875 3.23291V1.51416H2.06055H4.95117L11.1426 11.3774L11.2012 11.3677V3.52588L9.38477 3.23291V1.51416H13.75H15.2734V3.23291L13.75 3.52588V15.7329H10.9961L4.66797 5.96729L4.60938 5.97705V13.731L6.43555 14.0239V15.7329H0.546875ZM21.3379 15.938C20.3288 15.938 19.4466 15.7166 18.6914 15.2739C17.9362 14.8247 17.3503 14.2095 16.9336 13.4282C16.5234 12.647 16.3184 11.755 16.3184 10.7524V10.3618C16.3184 9.31364 16.5137 8.3859 16.9043 7.57861C17.2949 6.76481 17.8451 6.12679 18.5547 5.66455C19.2708 5.1958 20.1139 4.96468 21.084 4.97119C22.041 4.97119 22.8451 5.15999 23.4961 5.5376C24.1471 5.9152 24.6419 6.45882 24.9805 7.16846C25.319 7.87809 25.4883 8.73747 25.4883 9.74658V11.2993H19.2773L19.2578 11.3579C19.2969 11.8201 19.4108 12.2336 19.5996 12.5981C19.7949 12.9562 20.0684 13.2394 20.4199 13.4478C20.7715 13.6496 21.1979 13.7505 21.6992 13.7505C22.2201 13.7505 22.7051 13.6854 23.1543 13.5552C23.61 13.4185 24.0527 13.2199 24.4824 12.9595L25.2539 14.7173C24.8177 15.0688 24.2676 15.3618 23.6035 15.5962C22.946 15.8241 22.1908 15.938 21.3379 15.938ZM19.2969 9.41455H22.8223V9.16064C22.8223 8.73096 22.7637 8.36312 22.6465 8.05713C22.5358 7.74463 22.3535 7.50374 22.0996 7.33447C21.8522 7.1652 21.5299 7.08057 21.1328 7.08057C20.7552 7.08057 20.4362 7.18148 20.1758 7.3833C19.9154 7.57861 19.7103 7.8488 19.5605 8.19385C19.4173 8.5389 19.3197 8.92952 19.2676 9.36572L19.2969 9.41455ZM30.2637 15.7329L27.8027 7.11963L26.5137 6.88525V5.1665H31.6211V6.87549L30.5078 7.09033L31.4844 11.2017L31.6797 12.0122H31.7383L32.002 11.2017L34.1699 5.1665H36.084L38.1836 11.2798L38.457 12.1392H38.5156L38.7695 11.2798L39.9219 7.1001L38.6914 6.87549V5.1665H43.6914V6.88525L42.4609 7.11963L39.7754 15.7329H37.373L35.4395 10.4985L35.0977 9.33643H35.0391L34.6973 10.5083L32.793 15.7329H30.2637ZM49.1309 15.938C48.3431 15.938 47.6074 15.8631 46.9238 15.7134C46.2467 15.5636 45.5957 15.3488 44.9707 15.0688L44.9414 12.0806H46.9238L47.3047 13.604C47.526 13.7147 47.7669 13.8026 48.0273 13.8677C48.2943 13.9328 48.597 13.9653 48.9355 13.9653C49.5736 13.9653 50.0228 13.8612 50.2832 13.6528C50.5436 13.4445 50.6738 13.1841 50.6738 12.8716C50.6738 12.5786 50.5339 12.3215 50.2539 12.1001C49.9805 11.8722 49.4303 11.6737 48.6035 11.5044C47.3535 11.244 46.4323 10.8403 45.8398 10.2935C45.2474 9.74658 44.9512 9.04671 44.9512 8.19385C44.9512 7.60791 45.0977 7.07406 45.3906 6.59229C45.6901 6.11051 46.1426 5.72314 46.748 5.43018C47.36 5.13721 48.1413 4.99072 49.0918 4.99072C49.8861 4.99072 50.612 5.06885 51.2695 5.2251C51.9336 5.37484 52.4902 5.5734 52.9395 5.8208L52.9688 8.71143H50.9961L50.6934 7.32471C50.5176 7.1945 50.3092 7.09684 50.0684 7.03174C49.834 6.96663 49.5671 6.93408 49.2676 6.93408C48.7663 6.93408 48.3822 7.03499 48.1152 7.23682C47.8483 7.43864 47.7148 7.69906 47.7148 8.01807C47.7148 8.20036 47.7604 8.36963 47.8516 8.52588C47.9492 8.68213 48.138 8.82861 48.418 8.96533C48.6979 9.10205 49.1048 9.23226 49.6387 9.35596C50.9473 9.65544 51.901 10.0558 52.5 10.5571C53.099 11.0519 53.3984 11.7485 53.3984 12.647C53.3984 13.63 53.0404 14.4243 52.3242 15.0298C51.6146 15.6353 50.5501 15.938 49.1309 15.938ZM54.6289 15.7329V14.0239L56.1426 13.731V3.52588L54.6289 3.23291V1.51416H65.6641V5.35205H63.4766L63.3496 3.71143H58.9941V7.28564H63.8086V9.48291H58.9941V13.5454H63.584L63.7109 11.8462H65.8789V15.7329H54.6289ZM67.1484 15.7329V14.0239L68.5059 13.8481L71.5332 10.4399L68.6719 7.05127L67.3926 6.88525V5.1665H72.627V6.80713L71.8066 6.93408L73.3398 8.9458L74.873 6.93408L73.9648 6.80713V5.1665H79.0137V6.88525L77.832 7.05127L75.127 10.3228L78.1445 13.8481L79.4434 14.0239V15.7329H74.0234V14.1021L74.9414 13.9751L73.3105 11.9536L71.7188 13.9849L72.6172 14.1021V15.7329H67.1484ZM80.293 19.7954V18.0767L81.6699 17.7837V7.17822L80.1465 6.88525V5.1665H84.2871L84.4238 6.39697C84.7363 5.94124 85.1139 5.58968 85.5566 5.34229C85.9993 5.09489 86.5267 4.97119 87.1387 4.97119C87.9915 4.97119 88.7207 5.20557 89.3262 5.67432C89.9316 6.13656 90.3939 6.78434 90.7129 7.61768C91.0384 8.45101 91.2012 9.42432 91.2012 10.5376V10.7427C91.2012 11.7843 91.0384 12.6958 90.7129 13.4771C90.3939 14.2518 89.9284 14.8573 89.3164 15.2935C88.7109 15.7231 87.9785 15.938 87.1191 15.938C86.5527 15.938 86.0514 15.8371 85.6152 15.6353C85.1855 15.4269 84.8177 15.1242 84.5117 14.7271V17.7837L85.8887 18.0767V19.7954H80.293ZM86.2695 13.7505C86.9987 13.7505 87.526 13.4803 87.8516 12.9399C88.1836 12.3996 88.3496 11.6672 88.3496 10.7427V10.5376C88.3496 9.86702 88.2747 9.28434 88.125 8.78955C87.9753 8.28825 87.7441 7.89762 87.4316 7.61768C87.1257 7.33122 86.7318 7.18799 86.25 7.18799C85.8594 7.18799 85.5143 7.27588 85.2148 7.45166C84.9219 7.62744 84.6875 7.87809 84.5117 8.20361V12.8325C84.6875 13.132 84.9219 13.3599 85.2148 13.5161C85.5143 13.6724 85.8659 13.7505 86.2695 13.7505ZM92.1191 15.7329V14.0239L93.4961 13.731V2.51025L91.9727 2.21729V0.498535H96.3477V13.731L97.7246 14.0239V15.7329H92.1191ZM103.506 15.938C102.464 15.938 101.569 15.7101 100.82 15.2544C100.072 14.7987 99.4987 14.1672 99.1016 13.3599C98.7044 12.5461 98.5059 11.6118 98.5059 10.5571V10.3521C98.5059 9.30387 98.7044 8.37614 99.1016 7.56885C99.4987 6.75505 100.068 6.12028 100.811 5.66455C101.559 5.20231 102.451 4.97119 103.486 4.97119C104.535 4.97119 105.43 5.20231 106.172 5.66455C106.914 6.12028 107.484 6.75179 107.881 7.55908C108.278 8.36637 108.477 9.29736 108.477 10.3521V10.5571C108.477 11.6118 108.278 12.5461 107.881 13.3599C107.484 14.1672 106.914 14.7987 106.172 15.2544C105.43 15.7101 104.541 15.938 103.506 15.938ZM103.506 13.7505C104.001 13.7505 104.404 13.617 104.717 13.3501C105.029 13.0832 105.26 12.7121 105.41 12.2368C105.56 11.755 105.635 11.1951 105.635 10.5571V10.3521C105.635 9.72705 105.56 9.17692 105.41 8.70166C105.26 8.21989 105.026 7.84554 104.707 7.57861C104.395 7.30518 103.988 7.16846 103.486 7.16846C102.998 7.16846 102.594 7.30518 102.275 7.57861C101.956 7.84554 101.722 8.21989 101.572 8.70166C101.429 9.17692 101.357 9.72705 101.357 10.3521V10.5571C101.357 11.1951 101.429 11.755 101.572 12.2368C101.722 12.7186 101.956 13.0929 102.275 13.3599C102.594 13.6203 103.005 13.7505 103.506 13.7505ZM109.971 15.7329V14.0239L111.338 13.731V7.17822L109.824 6.88525V5.1665H113.994L114.102 6.4751L114.121 6.70947C114.382 6.13656 114.704 5.70361 115.088 5.41064C115.472 5.11768 115.931 4.97119 116.465 4.97119C116.634 4.97119 116.82 4.98747 117.021 5.02002C117.223 5.04606 117.402 5.08187 117.559 5.12744L117.256 7.75439L115.84 7.67627C115.436 7.65674 115.107 7.7251 114.854 7.88135C114.606 8.0376 114.385 8.26221 114.189 8.55518V13.731L115.557 14.0239V15.7329H109.971ZM123.271 15.938C122.262 15.938 121.38 15.7166 120.625 15.2739C119.87 14.8247 119.284 14.2095 118.867 13.4282C118.457 12.647 118.252 11.755 118.252 10.7524V10.3618C118.252 9.31364 118.447 8.3859 118.838 7.57861C119.229 6.76481 119.779 6.12679 120.488 5.66455C121.204 5.1958 122.048 4.96468 123.018 4.97119C123.975 4.97119 124.779 5.15999 125.43 5.5376C126.081 5.9152 126.576 6.45882 126.914 7.16846C127.253 7.87809 127.422 8.73747 127.422 9.74658V11.2993H121.211L121.191 11.3579C121.23 11.8201 121.344 12.2336 121.533 12.5981C121.729 12.9562 122.002 13.2394 122.354 13.4478C122.705 13.6496 123.132 13.7505 123.633 13.7505C124.154 13.7505 124.639 13.6854 125.088 13.5552C125.544 13.4185 125.986 13.2199 126.416 12.9595L127.188 14.7173C126.751 15.0688 126.201 15.3618 125.537 15.5962C124.88 15.8241 124.124 15.938 123.271 15.938ZM121.23 9.41455H124.756V9.16064C124.756 8.73096 124.697 8.36312 124.58 8.05713C124.469 7.74463 124.287 7.50374 124.033 7.33447C123.786 7.1652 123.464 7.08057 123.066 7.08057C122.689 7.08057 122.37 7.18148 122.109 7.3833C121.849 7.57861 121.644 7.8488 121.494 8.19385C121.351 8.5389 121.253 8.92952 121.201 9.36572L121.23 9.41455ZM128.955 15.7329V14.0239L130.322 13.731V7.17822L128.809 6.88525V5.1665H132.979L133.086 6.4751L133.105 6.70947C133.366 6.13656 133.688 5.70361 134.072 5.41064C134.456 5.11768 134.915 4.97119 135.449 4.97119C135.618 4.97119 135.804 4.98747 136.006 5.02002C136.208 5.04606 136.387 5.08187 136.543 5.12744L136.24 7.75439L134.824 7.67627C134.421 7.65674 134.092 7.7251 133.838 7.88135C133.59 8.0376 133.369 8.26221 133.174 8.55518V13.731L134.541 14.0239V15.7329H128.955Z" fill="#1A1B22"/>
</svg>
